<?xml version="1.0" encoding="UTF-8" standalone="no"?>
<!-- Created with Inkscape (http://www.inkscape.org/) -->

<svg
   version="1.1"
   id="svg1"
   width="316.73184"
   height="316.73184"
   viewBox="0 0 316.73184 316.73184"
   sodipodi:docname="favicon.svg"
   inkscape:version="1.4.2 (ebf0e940d0, 2025-05-08)"
   xmlns:inkscape="http://www.inkscape.org/namespaces/inkscape"
   xmlns:sodipodi="http://sodipodi.sourceforge.net/DTD/sodipodi-0.dtd"
   xmlns="http://www.w3.org/2000/svg"
   xmlns:svg="http://www.w3.org/2000/svg">
  <defs
     id="defs1" />
  <sodipodi:namedview
     id="namedview1"
     pagecolor="#ffffff"
     bordercolor="#000000"
     borderopacity="0.25"
     inkscape:showpageshadow="2"
     inkscape:pageopacity="0.0"
     inkscape:pagecheckerboard="0"
     inkscape:deskcolor="#d1d1d1"
     inkscape:zoom="0.5"
     inkscape:cx="51"
     inkscape:cy="199"
     inkscape:window-width="990"
     inkscape:window-height="1414"
     inkscape:window-x="0"
     inkscape:window-y="0"
     inkscape:window-maximized="0"
     inkscape:current-layer="g1" />
  <g
     inkscape:groupmode="layer"
     inkscape:label="Image"
     id="g1"
     transform="translate(-131.93165,-10.188591)">
    <circle
       style="fill:#ffffff;stroke:#ffffff;stroke-width:1.01625"
       id="path3"
       cx="290.29758"
       cy="168.55452"
       r="157.8578" />
    <path
       style="fill:#000000;stroke:none"
       d="m 342.24213,314.27726 c 6.52301,-15.43449 4,-34.26583 4,-50.66666 v -72 c 0,-15.29423 1.09739,-32.0648 -4.32511,-46.66667 -6.17501,-16.62823 -28.19066,-21.77065 -32.29733,-38.66666 -3.16833,-13.03541 -3.71014,-38.892587 -0.28806,-51.880664 2.22504,-8.444845 11.29154,-13.601664 6.58746,-23.819966 -4.6629,-10.128886 -44.60972,-9.71403 -51.55865,-2.280863 -8.29665,8.874796 2.01302,18.030232 4.12552,26.100829 3.54892,13.558268 2.09353,36.658507 0.17078,50.547324 -2.33753,16.88497 -25.62198,23.66555 -31.62346,40 -4.45116,12.11491 -2.94532,24.80611 -2.79629,37.33333 0.24842,20.88237 0.005,41.78268 0.005,62.66667 v 53.33333 c 0.002,3.92253 -1.15104,15.72428 5.28087,15.72428 6.38373,0 3.26493,-12.36741 2.94547,-15.72428 -1.5817,-16.62081 -0.22634,-33.97131 -0.22634,-50.66666 v -62.66667 c 0,-10.80305 -1.58543,-22.98647 2.06378,-33.33333 7.39234,-20.95998 30.86554,-25.72786 32.48354,-49.33334 1.10641,-16.141459 2.42371,-36.110737 -0.70678,-51.993834 -1.06157,-5.386006 -10.81188,-14.007608 -2.97531,-17.688272 5.90392,-2.772929 34.68818,-4.216248 35.90638,4.35496 0.62123,4.37091 -6.09072,8.407592 -6.74589,13.333312 -2.34233,17.609822 -3.3584,38.33081 -0.97221,55.993844 2.99294,22.15437 28.81634,27.47363 33.965,49.33333 8.26722,35.10012 1.64816,78.62707 1.64816,114.66666 0,12.18726 -4.04248,34.82684 5.33333,44 m -56,-74.66666 -2.13772,39.69547 -16.5288,12.30452 h 41.33333 c -3.85917,-7.03275 -9.65165,-8.70505 -17.33334,-9.33333 1.36821,-12.44582 -1.55511,-26.30936 1.75721,-38.59464 2.01656,-7.47933 12.63257,-10.07919 16.14609,-17.40637 7.10238,-14.81153 -1.53678,-33.30343 -4.56996,-47.99899 -7.42475,-0.31878 -24.24599,-5.18413 -30.14199,0.91152 -15.40995,15.93179 -14.82751,57.72766 11.47532,60.42182 m 12,-56 c 2.65106,11.59192 10.02562,26.99241 4.84363,38.64607 -5.89144,13.24919 -25.16791,13.41386 -29.41358,-1.31376 -3.44114,-11.93676 3.26463,-25.8224 5.90329,-37.33231 h 18.66666 m -11.74898,27.73458 c -8.87451,3.06392 -4.25678,16.60237 4.88582,12.78804 7.42334,-3.09705 2.75619,-15.42647 -4.88582,-12.78804 z"
       id="path1"
       inkscape:label="path1" />
  </g>
</svg>
