<?xml version="1.0" encoding="UTF-8" standalone="no"?>
<!-- Created with Inkscape (http://www.inkscape.org/) -->

<svg
   version="1.1"
   id="svg1"
   width="57.027863"
   height="112.81731"
   viewBox="0 0 57.027863 112.81733"
   sodipodi:docname="red-wine.svg"
   inkscape:export-filename="red-wine-big.svg"
   inkscape:export-xdpi="1010.0326"
   inkscape:export-ydpi="1010.0326"
   xmlns:inkscape="http://www.inkscape.org/namespaces/inkscape"
   xmlns:sodipodi="http://sodipodi.sourceforge.net/DTD/sodipodi-0.dtd"
   xmlns="http://www.w3.org/2000/svg"
   xmlns:svg="http://www.w3.org/2000/svg">
  <sodipodi:namedview
     id="namedview1"
     pagecolor="#ffffff"
     bordercolor="#000000"
     borderopacity="0.25"
     inkscape:showpageshadow="2"
     inkscape:pageopacity="0.0"
     inkscape:pagecheckerboard="0"
     inkscape:deskcolor="#d1d1d1">
    <inkscape:page
       x="0"
       y="0"
       width="57.027863"
       height="112.81733"
       id="page2"
       margin="0"
       bleed="0" />
  </sodipodi:namedview>
  <defs
     id="defs1" />
  <g
     id="g1"
     transform="translate(-192.60582,-104.74881)">
    <g
       id="g146">
      <path
         style="fill:#000000"
         d="m 202.36939,216.85482 c -1.55605,-1.71941 -0.83715,-2.05793 7.95435,-3.7456 4.20016,-0.80628 7.75352,-1.5382 7.89636,-1.62647 0.46239,-0.28577 0.32322,-51.96391 -0.14031,-52.10186 -0.22,-0.0655 -1.48,-0.36242 -2.8,-0.65987 -21.11457,-4.75799 -29.89804,-33.41152 -15.84166,-51.67884 2.46174,-3.19922 41.47332,-2.98788 43.90345,0.23784 14.26569,18.93602 2.6161,51.92 -18.33759,51.92 -0.7642,0 -0.7642,0 -0.7642,26.17769 v 26.1777 l 8.00944,1.54099 c 8.75699,1.68481 9.25536,1.90239 8.16593,3.56508 -0.7032,1.07321 -37.0822,1.25808 -38.04577,0.19334 z m 28.3504,-2.55856 -7.76,-1.48213 v -27.41018 c 0,-27.41019 0,-27.41019 1.82859,-27.63866 21.01195,-2.62527 31.38887,-31.93876 17.53185,-49.52527 -2.27974,-2.89332 -39.85114,-2.88912 -42.00897,0.005 -13.79526,18.50051 -2.15914,49.6753 18.54151,49.6753 0.91059,0 0.91059,0 0.82881,27.43851 l -0.0818,27.43852 -7.68,1.49585 c -7.68,1.49585 -7.68,1.49585 9.44,1.49066 17.12,-0.005 17.12,-0.005 9.36,-1.4873 z m -16.78392,-60.01361 c -12.58634,-4.51792 -20.14983,-19.0093 -17.09954,-32.76212 0.88617,-3.99547 1.16689,-4.43706 2.96794,-4.6687 8.64858,-1.11233 16.60403,-0.15942 26.32049,3.15268 7.0156,2.39145 14.21827,3.08993 18.51072,1.79508 1.4166,-0.42733 1.46208,-0.29358 1.62387,4.77591 0.60991,19.11094 -16.17914,33.50223 -32.32348,27.70715 z"
         id="path29" />
      <path
         style="fill:#660032;fill-opacity:1;stroke-width:0.4"
         d="m 215.7098,154.58438 c -11.48203,-3.09254 -19.9581,-15.61484 -19.1936,-28.35607 0.24769,-4.12795 1.07601,-7.59162 2.04828,-8.56493 0.54656,-0.54714 1.74155,-0.6871 6.81975,-0.79872 7.07638,-0.15556 11.78881,0.55774 19.24526,2.91306 7.76529,2.45288 12.58176,3.15703 17.68207,2.58506 2.28322,-0.25606 3.13944,-0.21887 3.39327,0.14737 0.18672,0.26942 0.26821,2.82985 0.18108,5.68985 -0.1375,4.51351 -0.31916,5.66265 -1.37605,8.70449 -3.90346,11.23448 -12.94749,18.34699 -23.23051,18.26919 -1.91364,-0.0145 -4.41994,-0.27966 -5.56955,-0.5893 z"
         id="path31" />
    </g>
  </g>
  <path
     style="fill:#660032;fill-opacity:1;stroke-width:0.0176277"
     d="M 27.895842,50.809627 C 26.308825,50.732322 24.997123,50.546209 23.56824,50.195599 20.284235,49.38979 17.066011,47.791985 14.287254,45.587712 14.052158,45.40122 13.624374,45.04795 13.47638,44.918081 l -0.0617,-0.05414 0.222716,-7.16e-4 0.222716,-7.17e-4 0.191535,0.161533 c 2.553574,2.15358 5.432005,3.736242 8.458928,4.651013 0.976788,0.295196 1.933335,0.464168 3.437403,0.607209 1.113319,0.10588 1.802777,0.139895 2.855688,0.140889 0.914422,8.63e-4 1.235014,-0.01192 1.99193,-0.07941 4.534916,-0.404369 8.860379,-2.23974 12.510828,-5.308566 l 0.20669,-0.173759 0.209253,0.005 0.209253,0.005 -0.230852,0.196742 c -2.432121,2.072753 -5.222458,3.662018 -8.11925,4.624404 -1.840438,0.611439 -3.632419,0.960517 -5.614424,1.093689 -0.277564,0.01865 -1.813031,0.03605 -2.071255,0.02347 z"
     id="path1" />
  <path
     style="fill:#660032;fill-opacity:1;stroke-width:0.0176277"
     d="M 13.138509,44.622618 C 12.238757,43.824048 11.265799,42.828314 10.487808,41.909867 8.4931633,39.555111 6.9027702,36.913939 5.7192006,33.990621 L 5.5461292,33.563149 h 0.1715937 0.1715936 l 0.1115612,0.277636 c 0.3494604,0.869683 0.8842069,2.004514 1.3601722,2.886537 1.6008349,2.966544 3.7161971,5.664258 6.1065161,7.787619 0.174514,0.155024 0.332943,0.296645 0.352064,0.314714 0.03402,0.03215 0.03002,0.03285 -0.188035,0.03285 h -0.222801 z"
     id="path2" />
  <path
     style="fill:#660032;fill-opacity:1;stroke-width:0.0176277"
     d="M 5.4116424,33.197374 C 4.429927,30.55398 3.8255204,27.74434 3.6322221,24.925574 c -0.094215,-1.373881 -0.08108,-3.024515 0.034998,-4.398112 0.035792,-0.423546 0.1232685,-1.192853 0.1813991,-1.595308 l 0.047104,-0.326112 0.1459454,-0.0051 c 0.1441503,-0.0051 0.1458317,-0.0046 0.1366924,0.03525 -0.01447,0.06315 -0.092851,0.709501 -0.1320878,1.089232 -0.2613486,2.529292 -0.2534438,4.56516 0.026385,6.79548 0.278814,2.222228 0.8615643,4.551772 1.6602455,6.636831 0.072418,0.189057 0.1358047,0.357622 0.1408586,0.374588 0.0083,0.02786 -0.00705,0.03085 -0.1585437,0.03085 h -0.167733 z"
     id="path3" />
  <path
     style="fill:#660032;fill-opacity:1;stroke-width:0.00623233"
     d="m 4.1753297,18.602978 c -0.00358,-0.0058 -0.037727,-0.0067 -0.1439678,-0.0038 -0.083392,0.0023 -0.139269,0.0015 -0.139269,-0.002 0,-0.01066 0.043706,-0.282354 0.072164,-0.4486 0.088494,-0.516957 0.1747984,-0.950912 0.3080113,-1.548735 0.4055752,-1.82011 0.6539423,-2.687063 0.937365,-3.271975 0.2356226,-0.486266 0.5162505,-0.784631 0.9042865,-0.961443 0.2759953,-0.125759 0.5789115,-0.195385 1.1841436,-0.272177 1.5493588,-0.196584 3.0451377,-0.324056 4.5371387,-0.386658 0.279183,-0.01172 0.561406,-0.02194 0.605454,-0.02194 h 0.03336 v 0.218132 0.218132 l -0.05453,2.5e-5 c -0.106767,4.8e-5 -0.987226,0.02323 -1.547177,0.04073 -2.9846592,0.0933 -4.1240234,0.231401 -4.6804841,0.56731 -0.1523226,0.09195 -0.2796964,0.213149 -0.4192392,0.398915 -0.1916395,0.255119 -0.4112651,0.682469 -0.5891055,1.146288 -0.395174,1.03064 -0.7181929,2.40279 -0.9645298,4.097222 -0.018644,0.128246 -0.035029,0.234304 -0.03641,0.235685 -0.00138,0.0014 -0.00463,-9.1e-4 -0.00721,-0.0051 z"
     id="path4" />
  <path
     style="fill:#660032;fill-opacity:1;stroke-width:0.00623233"
     d="m 20.454522,12.392469 c -0.163141,-0.01917 -0.692457,-0.07214 -0.956663,-0.09573 -1.970339,-0.175933 -4.110132,-0.237066 -6.562649,-0.187494 -0.166247,0.0034 -0.338026,0.0076 -0.38173,0.0094 l -0.07946,0.0033 v -0.217542 -0.217541 l 0.07011,-0.0038 c 0.03856,-0.0021 0.204733,-0.0065 0.369266,-0.0098 1.782841,-0.03564 3.508926,0.01959 5.266323,0.168514 0.806986,0.06838 1.422041,0.135015 2.405681,0.260619 l 0.03116,0.004 0.0017,0.151134 0.0017,0.151134 -0.02037,-7.31e-4 c -0.0112,-4.02e-4 -0.07646,-0.0073 -0.145013,-0.01538 z"
     id="path5" />
  <path
     style="fill:#660032;fill-opacity:1;stroke-width:0.00623233"
     d="m 28.824547,14.070914 c -0.878629,-0.246178 -1.963636,-0.523624 -2.84506,-0.727509 -1.552479,-0.359107 -3.077855,-0.638513 -4.540256,-0.831648 -0.252687,-0.03337 -0.670521,-0.08507 -0.760345,-0.09408 -0.02399,-0.0024 -0.04713,-0.0072 -0.05142,-0.01062 -0.0058,-0.0047 -0.0078,-0.04286 -0.0078,-0.151935 0,-0.138795 5.59e-4,-0.145697 0.0118,-0.145697 0.01474,0 0.480942,0.06489 0.739199,0.102882 2.290709,0.337013 4.652333,0.83517 7.102814,1.498256 0.244241,0.06609 0.412377,0.112788 0.414795,0.115206 0.0011,0.0011 0.0012,0.0606 2.71e-4,0.132281 l -0.0017,0.130325 z"
     id="path6" />
  <path
     style="fill:#660032;fill-opacity:1;stroke-width:0.00623233"
     d="m 36.150657,16.237658 c -0.04285,-0.01177 -0.197098,-0.05377 -0.342779,-0.09332 -1.129495,-0.30668 -2.33808,-0.663935 -3.782542,-1.118109 -1.077213,-0.338703 -1.998698,-0.615681 -2.853336,-0.85765 l -0.282013,-0.07985 V 13.95622 c 0,-0.103306 0.0017,-0.13191 0.0078,-0.129787 0.0043,0.0015 0.04425,0.01281 0.08881,0.02514 1.273798,0.352412 2.628909,0.770106 4.119573,1.269799 1.416819,0.474939 1.901727,0.627999 2.82169,0.890663 l 0.310058,0.08853 v 0.0798 c 0,0.04389 -0.0021,0.07955 -0.0047,0.07925 -0.0026,-3.03e-4 -0.03973,-0.01018 -0.08258,-0.02195 z"
     id="path7" />
  <path
     style="fill:#660032;fill-opacity:1;stroke-width:0.00623233"
     d="m 43.788383,17.680484 c -1.904078,-0.176187 -3.742736,-0.490064 -5.948764,-1.015512 -0.418804,-0.09975 -1.40327,-0.348379 -1.56899,-0.396245 l -0.03272,-0.0095 v -0.08014 -0.08014 l 0.02026,0.006 c 0.06608,0.01948 0.578943,0.157439 0.771251,0.207466 2.283044,0.593909 4.562286,1.008521 6.70755,1.220158 l 0.210341,0.02075 v 0.07013 0.07013 l -0.01714,-7.9e-4 c -0.0094,-4.35e-4 -0.07323,-0.006 -0.141785,-0.01232 z"
     id="path8" />
  <path
     style="fill:#660032;fill-opacity:1;stroke-width:0.00623233"
     d="m 45.86375,17.792818 c -0.589434,-0.0117 -1.266942,-0.04557 -1.799962,-0.08997 -0.06105,-0.0051 -0.112233,-0.0092 -0.11374,-0.0092 -0.0015,0 -0.0027,-0.03169 -0.0027,-0.07043 v -0.07043 l 0.0483,0.0047 c 0.209452,0.02022 0.689174,0.05713 0.998732,0.07683 1.136817,0.07235 2.341095,0.07901 3.36546,0.01861 0.695248,-0.041 1.387542,-0.116438 2.00058,-0.218014 0.159107,-0.02636 0.490141,-0.08704 0.512609,-0.09396 0.01,-0.0031 0.01091,0.0032 0.01091,0.07458 v 0.07794 l -0.02649,0.0034 c -0.01457,0.0019 -0.06295,0.0063 -0.107507,0.0099 -0.225149,0.01803 -0.498519,0.04535 -1.028336,0.102782 -1.396412,0.151366 -2.59649,0.208403 -3.857815,0.183354 z"
     id="path9" />
  <path
     style="fill:#660032;fill-opacity:1;stroke-width:0.00623233"
     d="m 53.314768,21.157218 c -2.24e-4,-0.655995 -0.0056,-1.074918 -0.01908,-1.497319 -0.03506,-1.095634 -0.102349,-1.754188 -0.194029,-1.898855 -0.02603,-0.04107 -0.101876,-0.111186 -0.153361,-0.141773 -0.246777,-0.146607 -0.693465,-0.195981 -1.466102,-0.162054 -0.140341,0.0062 -0.477058,0.0271 -0.556236,0.03458 l -0.04207,0.004 v -0.07827 -0.07827 l 0.03584,-0.0072 c 0.337,-0.06735 0.766578,-0.175227 1.12961,-0.283678 0.189004,-0.05646 0.393203,-0.109534 0.492355,-0.127963 0.09112,-0.01694 0.249244,-0.02307 0.316466,-0.01227 0.419243,0.06734 0.578789,0.562021 0.677444,2.100452 0.03216,0.501505 0.06383,1.245955 0.09651,2.26857 0.0067,0.210809 0.01404,0.423254 0.01624,0.4721 l 0.004,0.08881 h -0.168674 -0.168673 z"
     id="path10" />
  <path
     style="fill:#660032;fill-opacity:1;stroke-width:0.00623233"
     d="m 52.866734,28.779363 c 0.202872,-1.09323 0.308876,-2.305902 0.385303,-4.407819 0.03197,-0.879293 0.04868,-1.508196 0.05989,-2.254547 l 0.0042,-0.278897 h 0.166686 0.166686 l 0.0039,0.07323 c 0.0084,0.157245 0.01171,1.357397 0.0045,1.646895 -0.03782,1.520074 -0.172581,2.943402 -0.415712,4.390679 -0.04995,0.297351 -0.155802,0.872395 -0.168351,0.914596 -0.0029,0.0099 -0.01391,0.01091 -0.113997,0.01091 h -0.110754 z"
     id="path11" />
  <path
     style="fill:#660032;fill-opacity:1;stroke-width:0.00623233"
     d="m 50.285592,36.019721 c 0,-0.0017 0.02982,-0.06274 0.06626,-0.135553 0.211149,-0.421855 0.494453,-1.039619 0.72951,-1.590747 0.382915,-0.897802 0.69207,-1.721982 1.055514,-2.813899 0.33352,-1.002017 0.535726,-1.731428 0.685473,-2.472679 l 0.02675,-0.132437 h 0.111171 c 0.06114,0 0.111171,0.0015 0.111171,0.0033 0,0.01904 -0.134832,0.641929 -0.196247,0.906612 -0.481005,2.073012 -1.220209,4.186573 -2.111056,6.036016 -0.04788,0.09941 -0.08853,0.185646 -0.09033,0.191644 -0.003,0.01008 -0.01784,0.01091 -0.195746,0.01091 -0.105861,0 -0.192475,-0.0014 -0.192475,-0.0032 z"
     id="path12" />
  <path
     style="fill:#660032;fill-opacity:1;stroke-width:0.00623233"
     d="m 45.297099,43.163591 c 0.637704,-0.653767 1.388758,-1.530992 2.028991,-2.369845 1.057131,-1.385085 2.067497,-3.00166 2.852275,-4.563613 l 0.10411,-0.207211 0.191645,-1.4e-5 c 0.105404,-8e-6 0.191644,0.0016 0.191644,0.0035 0,0.0062 -0.296312,0.593194 -0.380484,0.75375 -1.224676,2.336045 -2.724382,4.441951 -4.501558,6.321145 L 45.646687,43.24617 H 45.431618 45.21655 Z"
     id="path13" />
  <path
     style="fill:#660032;fill-opacity:1;stroke-width:0.00623233"
     d="m 43.722841,44.86346 -0.215119,-0.0062 0.02181,-0.0187 c 0.461655,-0.395684 0.987389,-0.885685 1.474023,-1.373838 l 0.218003,-0.218684 0.21192,0.0016 0.21192,0.0016 -0.252302,0.254812 c -0.348278,0.351743 -0.628589,0.622288 -0.956559,0.923236 -0.149963,0.137608 -0.471727,0.424438 -0.489244,0.436126 -0.0062,0.0042 -0.08105,0.0042 -0.224457,0 z"
     id="path14" />
  <path
     style="fill:#660032;fill-opacity:1;stroke-width:0.00623233"
     d="m 39.185899,47.984429 9.6e-5,-0.154377 0.06379,-0.03372 c 0.03508,-0.01854 0.132497,-0.07149 0.216478,-0.117665 1.283401,-0.705582 2.541535,-1.563278 3.698815,-2.52156 0.08231,-0.06816 0.151943,-0.125977 0.154745,-0.128493 0.0028,-0.0025 0.0014,-0.006 -0.0031,-0.0077 -0.0045,-0.0017 -0.05154,0.033 -0.10481,0.07748 -1.180728,0.985905 -2.504248,1.887618 -3.839096,2.615573 l -0.183854,0.100264 -0.0016,-3.045394 c -8.6e-4,-1.674967 -6.24e-4,-3.046334 5.25e-4,-3.047483 0.0011,-0.0011 1.664496,-0.0014 3.696328,-5.25e-4 l 3.694238,0.0016 -0.107598,0.127763 c -0.650037,0.771858 -1.333286,1.495118 -2.090326,2.212738 -0.276417,0.262023 -0.613048,0.563718 -0.95506,0.855942 -0.05564,0.04754 -0.09962,0.08894 -0.09773,0.09199 0.0046,0.0074 0.0034,0.0083 0.09991,-0.07306 l 0.08442,-0.07116 0.09765,7.59e-4 c 0.05371,4.18e-4 0.145925,0.0025 0.204929,0.0047 l 0.107279,0.0039 -0.150906,0.128256 c -1.150746,0.978023 -2.241407,1.765885 -3.44781,2.490596 -0.365723,0.219696 -0.899955,0.522892 -1.11148,0.630805 l -0.02592,0.01322 z"
     id="path15" />
  <path
     style="fill:#660032;fill-opacity:1;stroke-width:0.00623233"
     d="m 39.18589,47.984429 8.6e-5,-0.154377 0.110248,-0.05921 c 1.376963,-0.739482 2.712649,-1.648869 4.003956,-2.726051 0.01257,-0.01048 0.02143,-0.02136 0.01969,-0.02416 -0.004,-0.0065 -0.02112,0.0066 -0.176538,0.1351 -1.18034,0.976038 -2.441644,1.831787 -3.773678,2.560304 l -0.180738,0.09885 -0.0016,-3.045736 c -8.6e-4,-1.675154 -6.24e-4,-3.046675 5.25e-4,-3.047824 0.0011,-0.0011 1.664793,-0.0014 3.696986,-5.25e-4 l 3.694897,0.0016 -0.142531,0.168273 c -0.926087,1.093341 -1.878866,2.05396 -2.960466,2.984822 -0.08227,0.0708 -0.150511,0.131422 -0.151653,0.134712 -0.0051,0.01464 0.01397,0.0012 0.09725,-0.06884 l 0.08894,-0.07475 0.06999,1.5e-5 c 0.03849,8e-6 0.131216,0.0019 0.206049,0.0041 l 0.136061,0.0041 -0.02972,0.02548 c -1.307379,1.120708 -2.521161,1.988719 -3.907352,2.794263 -0.233125,0.135473 -0.661013,0.373642 -0.774027,0.430834 l -0.02649,0.0134 z"
     id="path17" />
  <path
     style="fill:#660032;fill-opacity:1;stroke-width:0.00623233"
     d="m 39.185839,47.984392 3.6e-5,-0.15434 0.126169,-0.06817 c 1.334395,-0.721015 2.611496,-1.583274 3.820542,-2.579512 0.162677,-0.134043 0.18948,-0.157599 0.184801,-0.162411 -0.002,-0.002 -0.07909,0.05834 -0.171389,0.134143 -1.219382,1.001376 -2.40227,1.805978 -3.73072,2.537644 -0.0846,0.04659 -0.170839,0.09331 -0.191645,0.103812 l -0.03783,0.0191 v -3.047701 -3.047701 h 3.695774 c 2.032676,0 3.695775,0.0015 3.695775,0.0033 0,0.0018 -0.03847,0.04877 -0.08549,0.104392 -0.954184,1.128798 -1.882472,2.069609 -2.971469,3.011553 -0.09598,0.08302 -0.179848,0.156963 -0.186378,0.164323 -0.02807,0.03164 0.0055,0.0082 0.08784,-0.06144 l 0.08844,-0.07475 0.110999,8.25e-4 c 0.06105,4.53e-4 0.153913,0.0026 0.206364,0.0047 l 0.09537,0.0038 -0.154573,0.131258 c -0.445389,0.378211 -0.791203,0.656986 -1.201605,0.968665 -0.913283,0.693592 -1.87568,1.325238 -2.879338,1.889786 -0.172987,0.0973 -0.406272,0.225103 -0.462751,0.253508 l -0.03895,0.01959 z"
     id="path18" />
</svg>
