<?xml version="1.0" encoding="UTF-8" standalone="no"?>
<!-- Uploaded to: SVG Repo, www.svgrepo.com, Generator: SVG Repo Mixer Tools -->

<svg
   height="800px"
   width="800px"
   version="1.1"
   id="_x34_"
   viewBox="0 0 512 512"
   xml:space="preserve"
   sodipodi:docname="red_glass_no_ice.svg"
   inkscape:version="1.3.2 (091e20ef0f, 2023-11-25)"
   xmlns:inkscape="http://www.inkscape.org/namespaces/inkscape"
   xmlns:sodipodi="http://sodipodi.sourceforge.net/DTD/sodipodi-0.dtd"
   xmlns="http://www.w3.org/2000/svg"
   xmlns:svg="http://www.w3.org/2000/svg"><defs
   id="defs19" /><sodipodi:namedview
   id="namedview19"
   pagecolor="#ffffff"
   bordercolor="#000000"
   borderopacity="0.25"
   inkscape:showpageshadow="2"
   inkscape:pageopacity="0.0"
   inkscape:pagecheckerboard="0"
   inkscape:deskcolor="#d1d1d1"
   showgrid="false"
   inkscape:zoom="0.74953319"
   inkscape:cx="307.52474"
   inkscape:cy="412.25659"
   inkscape:window-width="1920"
   inkscape:window-height="1054"
   inkscape:window-x="0"
   inkscape:window-y="0"
   inkscape:window-maximized="0"
   inkscape:current-layer="_x34_" />
<g
   id="g19">
	<path
   style="fill:#FFFFFF;"
   d="M221.625,406.424c0.428-0.063,0.847-0.136,1.267-0.202c0.309-0.022,0.626-0.059,0.921-0.059   l0.029-0.1c91.588-14.893,161.534-94.35,161.534-190.16c0-95.403-33.6-150.357-68.96-215.904H290.07   c4.352,8.221,8.718,16.218,12.96,24.038c26.362,48.452,49.712,91.426,56.861,152.239c-12.025-1.727-25.912-2.773-42.62-2.773   c-65.021,0-87.369,15.722-123.06,26.524c-23.88-8.774-48.615-17.235-96.323-17.235c-33.339,0-55.448,4.135-73.897,9.617   c4.628-69.582,29.723-115.744,58.338-168.372C86.592,16.218,90.944,8.221,95.303,0H68.971C33.578,65.546,0,120.501,0,215.904   c0,95.811,69.936,175.268,161.531,190.16l0.015,0.1c0.316,0,0.618,0.037,0.935,0.059c0.412,0.066,0.839,0.139,1.266,0.202   c6.259,1.392,10.147,7.003,10.147,13.715v45.713c0,7.474-5.036,15.644-12.348,15.644l-32.113,6.642   c-6.193,0-11.237,4.915-11.237,10.971v1.918c0,6.06,5.044,10.972,11.237,10.972h61.699h3.115h61.677   c6.215,0,11.244-4.912,11.244-10.972v-1.918c0-6.056-5.029-10.971-11.244-10.971l-32.113-6.642c-7.298,0-12.334-8.17-12.334-15.644   v-45.713C211.478,413.428,215.359,407.816,221.625,406.424z"
   id="path1" />
	<path
   style="fill:#E6EDEF;"
   d="M267.169,501.028v-1.918c0-6.056-5.029-10.971-11.244-10.971l-32.113-6.642   c-7.298,0-12.334-8.17-12.334-15.644v-45.713c0-6.712,3.881-12.323,10.147-13.715c0.428-0.063,0.847-0.136,1.267-0.202   c0.309-0.022,0.626-0.059,0.921-0.059l0.029-0.1c91.588-14.893,161.534-94.35,161.534-190.16c0-95.403-33.6-150.357-68.96-215.904   H290.07c4.352,8.221,8.718,16.218,12.96,24.038c26.362,48.452,49.712,91.426,56.861,152.239   c-12.025-1.727-25.912-2.773-42.62-2.773c-65.013,0-87.361,15.714-123.023,26.512V512h61.677   C262.14,512,267.169,507.088,267.169,501.028z"
   id="path2" />
	<g
   id="g11">
		<path
   style="fill:#784420;"
   d="M23.991,192.41c-0.023,0.244-0.044,0.49-0.063,0.74c23.556,8.63,48.246,16.837,95.233,16.837    c34.034,0,56.368-4.308,75.049-9.959c-23.88-8.774-48.615-17.235-96.323-17.235C64.549,182.793,42.441,186.928,23.991,192.41z"
   id="path3" />
		<path
   style="opacity:0.37;fill:#FFFFFF;"
   d="M359.891,176.276c-7.15-60.813-30.5-103.786-56.861-152.239    c-4.241-7.82-8.608-15.817-12.96-24.038H95.303c-4.359,8.221-8.711,16.218-12.975,24.038    c-28.615,52.628-53.71,98.79-58.338,168.372c18.45-5.482,40.559-9.617,73.897-9.617c47.708,0,72.443,8.461,96.323,17.235    c35.691-10.802,58.039-26.524,123.06-26.524C333.979,173.504,347.866,174.55,359.891,176.276z"
   id="path4" />
		
		<path
   style="fill:#D8282D;"
   d="M317.271,173.504c-99.047,0-99.047,36.483-198.109,36.483c-46.987,0-71.677-8.207-95.233-16.837    c-0.468,7.312-0.718,14.889-0.718,22.754c0,93.443,76.025,169.465,169.461,169.465c93.466,0,169.48-76.022,169.48-169.465    c0-14.094-0.81-27.227-2.261-39.627C347.866,174.55,333.979,173.504,317.271,173.504z"
   id="path6" />
		
		
		
		<polygon
   style="opacity:0.32;fill:#FFFFFF;"
   points="114.324,4.06 153.799,4.06 91.128,101.562   "
   id="polygon9" />
		<path
   style="opacity:0.55;fill:#C11C27;"
   d="M134.433,357.159c17.82,7.919,37.54,12.326,58.239,12.326    c77.229,0,140.446-61.066,143.899-137.441L134.433,357.159z"
   id="path10" />
		<path
   style="opacity:0.55;fill:#C11C27;"
   d="M134.433,357.159c17.82,7.919,37.54,12.326,58.239,12.326    c77.229,0,140.446-61.066,143.899-137.441L134.433,357.159z"
   id="path11" />
	</g>
	<path
   style="fill:#FFFFFF;stroke:#070001;stroke-miterlimit:10;"
   d="M192.672,387.699"
   id="path12" />
	<path
   style="fill:#FFFFFF;stroke:#070001;stroke-miterlimit:10;"
   d="M192.672,389.426"
   id="path13" />
	<path
   style="fill:#FFFFFF;stroke:#070001;stroke-miterlimit:10;"
   d="M192.672,409.168"
   id="path14" />
	<path
   style="fill:#FFFFFF;stroke:#070001;stroke-miterlimit:10;"
   d="M192.672,466.622"
   id="path15" />
	<path
   style="fill:#FFFFFF;stroke:#070001;stroke-miterlimit:10;"
   d="M192.672,486.356"
   id="path16" />
	<path
   style="fill:#FFFFFF;stroke:#070001;stroke-miterlimit:10;"
   d="M192.672,488.098"
   id="path17" />
	<path
   style="fill:#FFFFFF;stroke:#070001;stroke-miterlimit:10;"
   d="M192.672,488.098"
   id="path18" />
	<path
   style="fill:#FFFFFF;stroke:#070001;stroke-miterlimit:10;"
   d="M192.672,387.699"
   id="path19" />
</g>
</svg>
