<?xml version="1.0" encoding="UTF-8" standalone="no"?>
<!-- Uploaded to: SVG Repo, www.svgrepo.com, Generator: SVG Repo Mixer Tools -->

<svg
   height="800.00159"
   width="602.15002"
   version="1.1"
   id="_x34_"
   viewBox="0 0 385.37602 512.00102"
   xml:space="preserve"
   sodipodi:docname="white_glass.svg"
   inkscape:version="1.3.2 (091e20ef0f, 2023-11-25)"
   xmlns:inkscape="http://www.inkscape.org/namespaces/inkscape"
   xmlns:sodipodi="http://sodipodi.sourceforge.net/DTD/sodipodi-0.dtd"
   xmlns="http://www.w3.org/2000/svg"
   xmlns:svg="http://www.w3.org/2000/svg"><defs
   id="defs19" /><sodipodi:namedview
   id="namedview19"
   pagecolor="#ffffff"
   bordercolor="#000000"
   borderopacity="0.25"
   inkscape:showpageshadow="2"
   inkscape:pageopacity="0.0"
   inkscape:pagecheckerboard="0"
   inkscape:deskcolor="#d1d1d1"
   showgrid="false"
   inkscape:zoom="0.53"
   inkscape:cx="-29.245283"
   inkscape:cy="541.50943"
   inkscape:window-width="1920"
   inkscape:window-height="1054"
   inkscape:window-x="0"
   inkscape:window-y="0"
   inkscape:window-maximized="0"
   inkscape:current-layer="_x34_" />
<g
   id="g19"
   transform="translate(0,0.001)">
	<path
   style="fill:#ffffff"
   d="m 221.625,406.424 c 0.428,-0.063 0.847,-0.136 1.267,-0.202 0.309,-0.022 0.626,-0.059 0.921,-0.059 l 0.029,-0.1 c 91.588,-14.893 161.534,-94.35 161.534,-190.16 0,-95.403 -33.6,-150.357 -68.96,-215.904 H 290.07 c 4.352,8.221 8.718,16.218 12.96,24.038 26.362,48.452 49.712,91.426 56.861,152.239 -12.025,-1.727 -25.912,-2.773 -42.62,-2.773 -65.021,0 -87.369,15.722 -123.06,26.524 -23.88,-8.774 -48.615,-17.235 -96.323,-17.235 -33.339,0 -55.448,4.135 -73.897,9.617 C 28.619,122.827 53.714,76.665 82.329,24.037 86.592,16.218 90.944,8.221 95.303,0 H 68.971 C 33.578,65.546 0,120.501 0,215.904 c 0,95.811 69.936,175.268 161.531,190.16 l 0.015,0.1 c 0.316,0 0.618,0.037 0.935,0.059 0.412,0.066 0.839,0.139 1.266,0.202 6.259,1.392 10.147,7.003 10.147,13.715 v 45.713 c 0,7.474 -5.036,15.644 -12.348,15.644 l -32.113,6.642 c -6.193,0 -11.237,4.915 -11.237,10.971 v 1.918 c 0,6.06 5.044,10.972 11.237,10.972 h 61.699 3.115 61.677 c 6.215,0 11.244,-4.912 11.244,-10.972 v -1.918 c 0,-6.056 -5.029,-10.971 -11.244,-10.971 l -32.113,-6.642 c -7.298,0 -12.334,-8.17 -12.334,-15.644 V 420.14 c 0.001,-6.712 3.882,-12.324 10.148,-13.716 z"
   id="path1" />
	<path
   style="fill:#e6edef"
   d="m 267.169,501.028 v -1.918 c 0,-6.056 -5.029,-10.971 -11.244,-10.971 l -32.113,-6.642 c -7.298,0 -12.334,-8.17 -12.334,-15.644 V 420.14 c 0,-6.712 3.881,-12.323 10.147,-13.715 0.428,-0.063 0.847,-0.136 1.267,-0.202 0.309,-0.022 0.626,-0.059 0.921,-0.059 l 0.029,-0.1 c 91.588,-14.893 161.534,-94.35 161.534,-190.16 0,-95.403 -33.6,-150.357 -68.96,-215.904 H 290.07 c 4.352,8.221 8.718,16.218 12.96,24.038 26.362,48.452 49.712,91.426 56.861,152.239 -12.025,-1.727 -25.912,-2.773 -42.62,-2.773 -65.013,0 -87.361,15.714 -123.023,26.512 V 512 h 61.677 c 6.215,0 11.244,-4.912 11.244,-10.972 z"
   id="path2" />
	<g
   id="g11">
		<path
   style="fill:#ecf7bd;fill-opacity:1"
   d="m 23.991,192.41 c -0.023,0.244 -0.044,0.49 -0.063,0.74 23.556,8.63 48.246,16.837 95.233,16.837 34.034,0 56.368,-4.308 75.049,-9.959 -23.88,-8.774 -48.615,-17.235 -96.323,-17.235 -33.338,0 -55.446,4.135 -73.896,9.617 z"
   id="path3" />
		<path
   style="opacity:0.37;fill:#ffffff"
   d="M 359.891,176.276 C 352.741,115.463 329.391,72.49 303.03,24.037 298.789,16.217 294.422,8.22 290.07,-0.001 H 95.303 C 90.944,8.22 86.592,16.217 82.328,24.037 53.713,76.665 28.618,122.827 23.99,192.409 c 18.45,-5.482 40.559,-9.617 73.897,-9.617 47.708,0 72.443,8.461 96.323,17.235 35.691,-10.802 58.039,-26.524 123.06,-26.524 16.709,0.001 30.596,1.047 42.621,2.773 z"
   id="path4" />
		
		<path
   style="fill:#e7ef95;fill-opacity:1"
   d="m 317.271,173.504 c -99.047,0 -99.047,36.483 -198.109,36.483 -46.987,0 -71.677,-8.207 -95.233,-16.837 -0.468,7.312 -0.718,14.889 -0.718,22.754 0,93.443 76.025,169.465 169.461,169.465 93.466,0 169.48,-76.022 169.48,-169.465 0,-14.094 -0.81,-27.227 -2.261,-39.627 -12.025,-1.727 -25.912,-2.773 -42.62,-2.773 z"
   id="path6" />
		
		
		
		<polygon
   style="opacity:0.32;fill:#ffffff"
   points="91.128,101.562 114.324,4.06 153.799,4.06 "
   id="polygon9" />
		
		<path
   style="opacity:0.55;fill:none;fill-opacity:1"
   d="m 134.433,357.159 c 17.82,7.919 37.54,12.326 58.239,12.326 77.229,0 140.446,-61.066 143.899,-137.441 z"
   id="path11" />
	</g>
	<path
   style="fill:#ffffff;stroke:#070001;stroke-miterlimit:10"
   d="M 192.672,387.699"
   id="path12" />
	<path
   style="fill:#ffffff;stroke:#070001;stroke-miterlimit:10"
   d="M 192.672,389.426"
   id="path13" />
	<path
   style="fill:#ffffff;stroke:#070001;stroke-miterlimit:10"
   d="M 192.672,409.168"
   id="path14" />
	<path
   style="fill:#ffffff;stroke:#070001;stroke-miterlimit:10"
   d="M 192.672,466.622"
   id="path15" />
	<path
   style="fill:#ffffff;stroke:#070001;stroke-miterlimit:10"
   d="M 192.672,486.356"
   id="path16" />
	<path
   style="fill:#ffffff;stroke:#070001;stroke-miterlimit:10"
   d="M 192.672,488.098"
   id="path17" />
	<path
   style="fill:#ffffff;stroke:#070001;stroke-miterlimit:10"
   d="M 192.672,488.098"
   id="path18" />
	<path
   style="fill:#ffffff;stroke:#070001;stroke-miterlimit:10"
   d="M 192.672,387.699"
   id="path19" />
</g>
</svg>
