<?xml version="1.0" encoding="UTF-8" standalone="no"?>
<!-- Uploaded to: SVG Repo, www.svgrepo.com, Generator: SVG Repo Mixer Tools -->

<svg
   height="800"
   width="800"
   version="1.1"
   id="Layer_1"
   viewBox="0 0 512 512"
   xml:space="preserve"
   sodipodi:docname="red_glass2.svg"
   inkscape:version="1.4.2 (ebf0e940d0, 2025-05-08)"
   xmlns:inkscape="http://www.inkscape.org/namespaces/inkscape"
   xmlns:sodipodi="http://sodipodi.sourceforge.net/DTD/sodipodi-0.dtd"
   xmlns="http://www.w3.org/2000/svg"
   xmlns:svg="http://www.w3.org/2000/svg"><defs
   id="defs7" /><sodipodi:namedview
   id="namedview7"
   pagecolor="#ffffff"
   bordercolor="#000000"
   borderopacity="0.25"
   inkscape:showpageshadow="2"
   inkscape:pageopacity="0.0"
   inkscape:pagecheckerboard="0"
   inkscape:deskcolor="#d1d1d1"
   inkscape:zoom="1"
   inkscape:cx="41"
   inkscape:cy="391.5"
   inkscape:window-width="2560"
   inkscape:window-height="1440"
   inkscape:window-x="0"
   inkscape:window-y="0"
   inkscape:window-maximized="0"
   inkscape:current-layer="layer2" />
<circle
   style="fill:#ffffff"
   cx="256"
   cy="256"
   r="256"
   id="circle1" />
<path
   style="fill:#ffffff"
   d="M 508.368,299.103 329.945,120.68 256,136.189 v 288.64 l -29.591,1.886 80.262,80.262 C 409.912,486.245 490.68,403.411 508.368,299.103 Z"
   id="path1"
   sodipodi:nodetypes="ccccccc" />






<g
   inkscape:groupmode="layer"
   id="layer2"
   inkscape:label="Layer 1"><path
     style="fill:#c92f00;stroke-width:1.44703"
     d="M 298.81911,475.35405 H 265.88323 V 289.80992 h -19.76211 v 185.54413 h -32.93588 c -5.4582,0 -9.88033,4.42213 -9.88033,9.88032 0,5.45821 4.42213,9.88034 9.88033,9.88034 h 85.6353 c 5.45821,0 9.88034,-4.42213 9.88034,-9.88034 -0.002,-5.45675 -4.42647,-9.88032 -9.88177,-9.88032 z"
     id="path2" /><path
     style="fill:#930000;stroke-width:1.44703"
     d="M 298.81911,475.35405 H 265.88323 V 289.80992 H 255.1723 v 205.30623 h 43.64969 c 5.45821,0 9.88033,-4.42212 9.88033,-9.88032 -0.004,-5.45821 -4.42791,-9.88178 -9.88321,-9.88178 z"
     id="path3" /><path
     style="fill:#ffffff;stroke-width:1.44703"
     d="m 148.99928,52.276844 c -17.37451,47.653645 -27.70487,98.299736 -27.70487,132.442426 0,82.52274 60.31082,149.42045 134.70559,149.42045 74.39477,0 134.70559,-66.89914 134.70559,-149.42045 0,-34.1427 -10.33036,-84.787342 -27.70487,-132.440979 H 148.99928 Z"
     id="path4" /><path
     style="fill:#d0d1d3;stroke-width:1.44703"
     d="M 363.00072,52.276844 H 255.1694 V 334.11512 c 0.27929,0.002 0.55132,0.0231 0.8306,0.0231 74.39477,0 134.70559,-66.89915 134.70559,-149.42044 0,-34.13981 -10.33036,-84.787343 -27.70487,-132.440988 z"
     id="path5" /><path
     style="fill:#930000;stroke-width:1.44703"
     d="m 123.1032,157.03756 c -1.18223,10.0178 -1.80879,19.34826 -1.80879,27.68171 0,82.52274 60.31082,149.42045 134.70559,149.42045 74.39477,0 134.70559,-66.89914 134.70559,-149.42045 0,-8.33489 -0.62657,-17.66391 -1.80879,-27.68171 z"
     id="path6" /><path
     style="fill:#600000;stroke-width:1.44703"
     d="M 388.8968,157.03756 H 255.1694 v 177.07755 c 0.27929,0.002 0.55132,0.0232 0.8306,0.0232 74.39477,0 134.70559,-66.89913 134.70559,-149.42043 0,-8.33201 -0.62657,-17.66102 -1.80879,-27.68026 z"
     id="path7" /></g></svg>
